<svg width="14" height="12" viewBox="0 0 14 12" fill="none" xmlns="http://www.w3.org/2000/svg">
<path d="M0.75 4.77298C0.335786 4.77298 0 5.10877 0 5.52298C0 5.93719 0.335786 6.27298 0.75 6.27298V4.77298ZM13.7803 6.05331C14.0732 5.76042 14.0732 5.28554 13.7803 4.99265L9.00736 0.219679C8.71447 -0.0732145 8.23959 -0.0732145 7.9467 0.219679C7.65381 0.512572 7.65381 0.987446 7.9467 1.28034L12.1893 5.52298L7.9467 9.76562C7.65381 10.0585 7.65381 10.5334 7.9467 10.8263C8.23959 11.1192 8.71447 11.1192 9.00736 10.8263L13.7803 6.05331ZM0.75 6.27298H13.25V4.77298H0.75V6.27298Z" fill="#18212D"/>
</svg>
